# xmcd
#
# Track frame offsets:
#	150
#	21251
#	45349
#	65989
#	87109
#	108834
#	136750
#	167243
#	185225
#	210387
#
# Disc length: 3185 seconds
#
# Revision: 3
# Processed by: cddbd v1.5.2PL0 Copyright (c) Steve Scherf et al.
# Submitted via: EZCDAudioConverter 8.0.2.1
#
DISCID=860c6f0a
DTITLE=Hồng Trúc - 5. Căn Nhà Ngoại Ô
DYEAR=2001
DGENRE=country
TTITLE0=Ngày em 20 tuổi
TTITLE1=Tím cả rừng chiều
TTITLE2=Tiếng hát chim đa đa
TTITLE3=Về dưới mái nhà
TTITLE4=Lá thư miền Trung
TTITLE5=Căn Nhà Ngoại Ô
TTITLE6=Dấu chân kỷ niệm
TTITLE7=Trăng sơn cước
TTITLE8=Từ đó em buồn
TTITLE9=Tình Cố Đô
EXTD=
EXTT0=
EXTT1=
EXTT2=
EXTT3=
EXTT4=
EXTT5=
EXTT6=
EXTT7=
EXTT8=
EXTT9=
PLAYORDER=
